<?xml version="1.0" encoding="utf-8"?>
<svg width="400px" height="400px" viewBox="0 0 400 400" version="1.1" xmlns:xlink="http://www.w3.org/1999/xlink" xmlns="http://www.w3.org/2000/svg">
    <defs>
        <rect width="400" height="400" id="artboard_1" />
        <clipPath id="clip_1">
            <use xlink:href="#artboard_1" clip-rule="evenodd" />
        </clipPath>
    </defs>
    <g id="Zeichenfläche-5" clip-path="url(#clip_1)">
        <use xlink:href="#artboard_1" stroke="none" fill="#FFFFFF" fill-opacity="0" />
        <g id="Rechteck-5-Maske" transform="translate(0 340)" artboard="7167caa3-e75f-4d6a-ade0-26e113a6458e">
            <path d="M30 0L0 0L0 60L60 60L60 30L30 30L30 0Z" id="Maske-Subtrahieren" fill="#808080" fill-rule="evenodd" stroke="none" />
        </g>
        <g id="Rechteck-5-Maske-2" transform="matrix(-1 2.5351817E-06 -2.5351817E-06 -1 400 60)" artboard="0f7111b4-a24d-47c0-be29-0957d3c7524f">
            <path d="M30 0L0 0L0 60L60 60L60 30L30 30L30 0Z" id="Maske-Subtrahieren" fill="#808080" fill-rule="evenodd" stroke="none" />
        </g>
        <g id="Rechteck-5-Maske-3" transform="matrix(1.2675908E-06 1 -1 1.2675908E-06 60 0)" artboard="1cb2981f-7e17-44c2-9148-09edefc083ea">
            <path d="M30 0L0 0L0 60L60 60L60 30L30 30L30 0Z" id="Maske-Subtrahieren" fill="#808080" fill-rule="evenodd" stroke="none" />
        </g>
        <g id="Rechteck-5-Maske-4" transform="matrix(1.2675908E-06 -1 1 1.2675908E-06 340 400)" artboard="c82ac722-741b-4d00-ab07-3a69a88ca236">
            <path d="M30 0L0 0L0 60L60 60L60 30L30 30L30 0Z" id="Maske-Subtrahieren" fill="#808080" fill-rule="evenodd" stroke="none" />
        </g>
    </g>
</svg>